<svg width="668" height="363" viewBox="0 0 668 363" fill="none" xmlns="http://www.w3.org/2000/svg">
<path d="M127.485 14.5414C3.48457 34.5414 -9.51543 57.5414 6.48457 211.541C26.1512 216.875 76.0846 227.541 118.485 227.541C171.485 227.541 195.485 223.541 201.485 227.541C207.485 231.541 399.485 367.541 427.485 361.541C455.485 355.541 388.485 223.541 440.485 236.541C492.485 249.541 632.485 264.541 660.485 246.541C688.485 228.541 620.485 124.541 559.485 145.541C498.485 166.541 464.485 155.541 447.485 136.541C430.485 117.541 361.485 30.5414 345.485 14.5414C329.485 -1.45859 251.485 -5.45859 127.485 14.5414Z" stroke="black"/>
</svg>
